<svg width="24" height="24" viewBox="0 0 24 24" fill="none" xmlns="http://www.w3.org/2000/svg">
<path d="M12 0C5.373 0 0 5.373 0 12C0 18.627 5.373 24 12 24C18.627 24 24 18.627 24 12C24 5.373 18.627 0 12 0ZM3 12C3 10.8181 3.23279 9.64778 3.68508 8.55585C4.13738 7.46392 4.80031 6.47177 5.63604 5.63604C6.47177 4.80031 7.46392 4.13738 8.55585 3.68508C9.64778 3.23279 10.8181 3 12 3C13.1819 3 14.3522 3.23279 15.4442 3.68508C16.5361 4.13738 17.5282 4.80031 18.364 5.63604C19.1997 6.47177 19.8626 7.46392 20.3149 8.55585C20.7672 9.64778 21 10.8181 21 12C21 14.3869 20.0518 16.6761 18.364 18.364C16.6761 20.0518 14.3869 21 12 21C9.61305 21 7.32387 20.0518 5.63604 18.364C3.94821 16.6761 3 14.3869 3 12V12ZM17.06 8.44C17.3409 8.72125 17.4987 9.1025 17.4987 9.5C17.4987 9.8975 17.3409 10.2787 17.06 10.56L11.56 16.06C11.2787 16.3409 10.8975 16.4987 10.5 16.4987C10.1025 16.4987 9.72125 16.3409 9.44 16.06L7.44 14.06C7.17504 13.7757 7.03079 13.3996 7.03765 13.011C7.04451 12.6224 7.20193 12.2516 7.47676 11.9768C7.75158 11.7019 8.12235 11.5445 8.51095 11.5377C8.89956 11.5308 9.27565 11.675 9.56 11.94L10.5 12.879L14.94 8.439C15.2213 8.1581 15.6025 8.00032 16 8.00032C16.3975 8.00032 16.7787 8.1581 17.06 8.439V8.44Z" fill="#0FA958"/>
</svg>
