<svg width="870" height="870" viewBox="0 0 870 870" fill="none" xmlns="http://www.w3.org/2000/svg">
<path d="M860.4 421.9L23.9002 2.49995C20.5002 0.799947 16.6002 0.39995 12.9002 1.29995C4.40022 3.39995 -0.899783 11.9999 1.20022 20.5999L87.4002 372.8C88.7002 378.1 92.6002 382.4 97.8002 384.1L245.5 434.8L97.9002 485.5C92.7002 487.3 88.8002 491.5 87.6002 496.8L1.20022 849.5C0.300217 853.2 0.700221 857.1 2.40022 860.4C6.30022 868.3 15.9002 871.5 23.9002 867.6L860.4 450.6C863.5 449.1 866 446.5 867.6 443.5C871.5 435.5 868.3 425.9 860.4 421.9ZM99.8002 749.3L150.1 543.7L445.3 442.4C447.6 441.6 449.5 439.8 450.3 437.4C451.7 433.2 449.5 428.7 445.3 427.2L150.1 326L100 121.2L728 436.1L99.8002 749.3V749.3Z" fill="#666666"/>
</svg>
